# AST/ASF file generated using VICON BodyLanguage
# -----------------------------------------------
:version 1.10
:name VICON
:units
  mass 1.0
  length 0.45
  angle deg
:documentation
   .ast/.asf automatically generated from VICON data using
   VICON BodyBuilder and BodyLanguage model FoxedUp or BRILLIANT.MOD
:root
   order TX TY TZ RX RY RZ
   axis XYZ
   position 0 0 0  
   orientation 0 0 0 
:bonedata
  begin
     id 1 
     name lhipjoint
     direction 0.62366 -0.717238 0.310833 
     length 2.53602 
     axis 0 0 0  XYZ
  end
  begin
     id 2 
     name lfemur
     direction 0.34202 -0.939693 0  
     length 7.40817  
     axis 0 0 20  XYZ
    dof rx ry rz
    limits (-160.0 20.0)
           (-70.0 70.0)
           (-60.0 70.0)
  end
  begin
     id 3 
     name ltibia
     direction 0.34202 -0.939693 0   
     length 7.7045   
     axis 0 0 20   XYZ
    dof rx
    limits (-10.0 170.0)
  end
  begin
     id 4 
     name lfoot
     direction 0.0673888 -0.185149 0.980397   
     length 2.09456   
     axis -90 7.62852e-016 20   XYZ
    dof rx rz
    limits (-45.0 90.0)
           (-70.0 20.0)
  end
  begin
     id 5 
     name ltoes
     direction 1.53575e-011 -4.21994e-011 1   
     length 1.05543   
     axis -90 7.62852e-016 20   XYZ
    dof rx
    limits (-90.0 20.0)
  end
  begin
     id 6 
     name rhipjoint
     direction -0.489018 -0.800347 0.346851   
     length 2.27268  
     axis 0 0 0  XYZ 
  end
  begin
     id 7 
     name rfemur
     direction -0.34202 -0.939693 0   
     length 7.55487   
     axis 0 0 -20   XYZ
    dof rx ry rz
    limits (-160.0 20.0)
           (-70.0 70.0)
           (-70.0 60.0)
  end
  begin
     id 8 
     name rtibia
     direction -0.34202 -0.939693 0   
     length 7.78969   
     axis 0 0 -20   XYZ
    dof rx
    limits (-10.0 170.0)
 end
 begin
     id 9 
     name rfoot
     direction -0.0859318 -0.236096 0.967923   
     length 2.19143  
     axis -90 -7.62852e-016 -20   XYZ
    dof rx rz
    limits (-45.0 90.0)
           (-20.0 70.0)
  end
  begin
     id 10 
     name rtoes
     direction -1.53538e-011 -4.21989e-011 1   
     length 1.09845   
     axis -90 -7.62852e-016 -20   XYZ
    dof rx
    limits (-90.0 20.0)
  end
  begin
     id 11 
     name lowerback
     direction -0.00762546 0.998978 -0.0445553   
     length 1.98161   
     axis 0 0 0   XYZ
    dof rx ry rz
    limits (-20.0 45.0)
           (-30.0 30.0)
           (-30.0 30.0)
  end
  begin
     id 12 
     name upperback
     direction 0.0422361 0.998867 -0.0219156   
     length 1.97558   
     axis 0 0 0   XYZ
    dof rx ry rz
    limits (-20.0 45.0)
           (-30.0 30.0)
           (-30.0 30.0)
  end
  begin
     id 13 
     name thorax
     direction 0.0442465 0.999021 7.47603e-005   
     length 1.97799   
     axis 0 0 0   XYZ
    dof rx ry rz
    limits (-20.0 45.0)
           (-30.0 30.0)
           (-30.0 30.0)
  end
  begin
     id 14 
     name lowerneck
     direction 0.00312169 0.984641 0.174564   
     length 1.78995   
     axis 0 0 0   XYZ
    dof rx ry rz
    limits (-20.0 45.0)
           (-30.0 30.0)
           (-30.0 30.0)
  end
  begin
     id 15 
     name upperneck
     direction -0.0383028 0.985255 -0.166749   
     length 1.83053   
     axis 0 0 0   XYZ
    dof rx ry rz
    limits (-20.0 45.0)
           (-30.0 30.0)
           (-30.0 30.0)
  end
  begin
     id 16
     name head
     direction -0.0129546 0.997059 -0.0755386  
     length 1.84088  
     axis 0 0 0   XYZ
    dof rx ry rz
    limits (-20.0 45.0)
           (-30.0 30.0)
           (-30.0 30.0)
  end
  begin
     id 17 
     name lclavicle
     direction 0.912857 0.370519 -0.171488  
     length 3.51279  
     axis 0 0 0   XYZ
    dof ry rz
    limits (-20.0 10.0)
           (0.0 20.0)
  end
  begin
     id 18 
     name lhumerus
     direction 1 -4.48962e-011 3.64361e-027   
     length 4.95663   
     axis 180 -30 -90   XYZ
    dof rx ry rz
    limits (-60.0 90.0)
           (-90.0 90.0)
           (-90.0 90.0)
  end
  begin
     id 19
     name lradius
     direction 1 -4.48974e-011 5.97202e-027   
     length 3.38177   
     axis 180 -30 -90   XYZ
    dof rx
    limits (-10.0 170.0)
  end
  begin
     id 20
     name lwrist
     direction 1 -4.4896e-011 9.83288e-027   
     length 1.69088   
     axis -9.31221e-015 90 90   XYZ
    dof ry
    limits (-180.0 0.0)
 end
  begin
     id 21 
     name lhand
     direction 1 -4.4902e-011 1.96551e-026   
     length 0.662909   
     axis -1.25475e-014 90 90   XYZ
    dof rx rz
    limits (-90.0 90.0)
           (-45.0 45.0)
  end
  begin
     id 22 
     name lfingers
     direction 1 -4.48971e-011 3.93277e-026   
     length 0.534454   
     axis -2.50945e-014 90 90   XYZ
    dof rx
    limits (0.0 90.0)
  end
  begin
     id 23
     name lthumb
     direction 0.707107 -6.34933e-011 0.707107   
     length 0.767373   
     axis -90 45 -4.80359e-014   XYZ
    dof rx rz
    limits (-45.0 45.0)
           (-45.0 45.0)
  end
  begin
     id 24 
     name rclavicle
     direction -0.900919 0.395364 -0.178976   
     length 3.40627  
     axis 0 0 0   XYZ 
    dof ry rz
    limits (-10.0 20.0)
           (-20.0 0.0)
  end
  begin
     id 25 
     name rhumerus
     direction -1 -4.48969e-011 1.03875e-027  
     length 5.08365   
     axis 180 30 90   XYZ
    dof rx ry rz
    limits (-90.0 60.0)
           (-90.0 90.0)
           (-90.0 90.0)
  end
  begin
     id 26 
     name rradius
     direction -1 -4.48951e-011 5.02733e-027   
     length 3.35984   
     axis 180 30 90   XYZ
    dof rx
    limits (-10.0 170.0)
  end
  begin
     id 27 
     name rwrist
     direction -1 -4.49011e-011 9.82828e-027   
     length 1.67992   
     axis -9.31221e-015 -90 -90   XYZ
    dof ry
    limits (-180.0 0.0)
  end
  begin
     id 28
     name rhand
     direction -1 -4.48894e-011 1.96774e-026   
     length 0.820764   
     axis -1.25475e-014 -90 -90   XYZ
    dof rx rz
    limits (-90.0 90.0)
           (-45.0 45.0)
  end
  begin
     id 29
     name rfingers
     direction -1 -4.49095e-011 3.92833e-026   
     length 0.661721   
     axis -2.50945e-014 -90 -90   XYZ
    dof rx
    limits (0.0 90.0)
  end
  begin
     id 30
     name rthumb
     direction -0.707107 -6.34881e-011 0.707107   
     length 0.950103   
     axis -90 -45 4.80359e-014   XYZ
    dof rx rz
    limits (-45.0 45.0)
           (-45.0 45.0)
  end
:hierarchy
  begin
    root lhipjoint rhipjoint lowerback
    lhipjoint lfemur
    lfemur ltibia
    ltibia lfoot
    lfoot ltoes
    rhipjoint rfemur
    rfemur rtibia
    rtibia rfoot
    rfoot rtoes
    lowerback upperback
    upperback thorax
    thorax lowerneck lclavicle rclavicle
    lowerneck upperneck
    upperneck head
    lclavicle lhumerus
    lhumerus lradius
    lradius lwrist
    lwrist lhand lthumb
    lhand lfingers
    rclavicle rhumerus
    rhumerus rradius
    rradius rwrist
    rwrist rhand rthumb
    rhand rfingers
  end

#!OML:ASF I:\golf\golf\golf 2\Subject 1\2002-09-07\Subject1.ASF
:FULLY-SPECIFIED
:DEGREES
123
root -8.18381 17.6724 0.386116 -15.7397 81.688 -30.8847
lowerback 5.27018 3.45282 -5.95016
upperback 4.57237 4.47728 3.1899
thorax 1.09331 2.11775 6.44691
lowerneck -14.7872 0.722266 0.788298
upperneck 35.474 4.40936 -5.69999
head 14.977 1.62879 -1.65775
rclavicle -2.3059e-014 -1.47101e-014
rhumerus -11.0348 2.77586 -103.652
rradius 43.1978
rwrist -61.9398
rhand -39.0804 -8.29623
rfingers 7.12502
rthumb -12.0812 -37.9275
lclavicle -2.3059e-014 -1.47101e-014
lhumerus 15.2677 -73.815 80.819
lradius 24.2447
lwrist 28.082
lhand 3.60267 53.2946
lfingers 7.12502
lthumb -150.964 -98.9478
rfemur -34.6139 0.75207 14.069
rtibia 34.2263
rfoot -9.99821 -1.67014
rtoes -0.983555
lfemur -26.324 5.65567 -4.51646
ltibia 28.8251
lfoot -10.7754 4.34617
ltoes -27.5383
124
root -8.18496 17.6769 0.430433 -14.719 81.1948 -29.9298
lowerback 5.14238 3.38799 -6.14075
upperback 4.58817 4.38863 3.01495
thorax 1.19531 2.06498 6.38522
lowerneck -14.7701 1.02332 0.957716
upperneck 35.299 4.79404 -5.76719
head 14.9159 1.79923 -1.64952
rclavicle -1.21259e-014 1.94809e-014
rhumerus -11.0377 2.32434 -103.518
rradius 43.9889
rwrist -62.3513
rhand -39.6835 -7.82865
rfingers 7.12502
rthumb -12.6626 -37.4248
lclavicle -1.21259e-014 1.94809e-014
lhumerus 18.7842 -74.925 77.2552
lradius 24.3888
lwrist 27.6051
lhand 2.68263 52.4095
lfingers 7.12502
lthumb -151.843 -99.6849
rfemur -34.8251 0.783417 14.3748
rtibia 34.2695
rfoot -10.014 -1.10589
rtoes -0.505157
lfemur -26.0207 5.88325 -4.34491
ltibia 28.5202
lfoot -10.489 4.96809
ltoes -31.1922
125
root -8.18529 17.6677 0.47154 -13.8138 80.7378 -28.9709
lowerback 5.11467 3.25223 -6.43823
upperback 4.63827 4.20005 2.92912
thorax 1.28081 1.95942 6.47964
lowerneck -14.6581 1.37859 0.970287
upperneck 34.9805 5.30535 -5.88409
head 14.7724 1.99857 -1.61122
rclavicle -2.48481e-014 -2.26615e-014
rhumerus -11.1784 2.30316 -103.317
rradius 44.8852
rwrist -62.9248
rhand -40.195 -7.58999
rfingers 7.12502
rthumb -13.1557 -37.155
lclavicle -2.48481e-014 -2.26615e-014
lhumerus 22.3892 -75.7091 73.5845
lradius 24.6877
lwrist 27.079
lhand 3.20072 53.0726
lfingers 7.12502
lthumb -151.348 -99.1044
rfemur -34.9312 0.750847 14.6372
rtibia 34.3485
rfoot -9.97083 -0.365532
rtoes 0.875618
lfemur -25.3468 5.07618 -3.74685
ltibia 28.243
lfoot -10.8362 5.38783
ltoes -26.9462
126
root -8.1875 17.6622 0.511784 -13.7221 80.3339 -28.8462
lowerback 5.1359 3.0789 -6.5416
upperback 4.65645 3.96437 2.8154
thorax 1.32736 1.8372 6.43275
lowerneck -14.5184 1.72928 1.07064
upperneck 34.6946 5.77464 -5.97094
head 14.6384 2.19747 -1.58466
rclavicle -2.30093e-014 -1.09332e-014
rhumerus -11.4297 2.35317 -103.15
rradius 45.9456
rwrist -63.7833
rhand -40.957 -7.17649
rfingers 7.12502
rthumb -13.8902 -36.6926
lclavicle -2.30093e-014 -1.09332e-014
lhumerus 25.3982 -76.0562 70.6404
lradius 24.7984
lwrist 26.0518
lhand 4.3085 52.9459
lfingers 7.12502
lthumb -150.29 -99.4147
rfemur -35.0463 0.704893 15.0128
rtibia 34.4814
rfoot -9.85176 0.284593
rtoes 1.27062
lfemur -24.8178 4.46253 -3.15179
ltibia 27.956
lfoot -11.2245 5.59295
ltoes -20.5441
127
root -8.19343 17.6617 0.551139 -14.3435 80.0278 -29.6778
lowerback 4.9879 2.87812 -6.37375
upperback 4.5872 3.70663 2.62854
thorax 1.39811 1.71122 6.16126
lowerneck -14.3733 2.04241 1.36559
upperneck 34.4617 6.13102 -6.04471
head 14.5283 2.37614 -1.60756
rclavicle -1.1691e-014 -2.02263e-014
rhumerus -11.6261 2.06828 -103.016
rradius 47.0174
rwrist -64.6296
rhand -41.7645 -6.40716
rfingers 7.12502
rthumb -14.6682 -35.8683
lclavicle -1.1691e-014 -2.02263e-014
lhumerus 29.118 -76.5525 67.0147
lradius 24.8464
lwrist 24.9779
lhand 4.87692 51.9273
lfingers 7.12502
lthumb -149.747 -100.531
rfemur -35.4074 0.453509 15.57
rtibia 34.6418
rfoot -9.8267 0.781488
rtoes 0.893435
lfemur -24.7614 4.42565 -2.70861
ltibia 27.6452
lfoot -11.0858 6.10853
ltoes -21.7129
128
root -8.19765 17.6567 0.596667 -14.6363 79.6233 -30.1622
lowerback 4.82198 2.69113 -6.35456
upperback 4.53225 3.46414 2.4844
thorax 1.47926 1.5884 6.01872
lowerneck -14.2801 2.37633 1.584
upperneck 34.2279 6.54404 -6.12755
head 14.4339 2.56633 -1.61097
rclavicle 4.27387e-014 7.35503e-015
rhumerus -11.7841 1.86239 -102.785
rradius 48.1448
rwrist -65.4325
rhand -42.4649 -5.74278
rfingers 7.12502
rthumb -15.343 -35.1536
lclavicle 4.27387e-014 7.35503e-015
lhumerus 32.3257 -76.7687 64.0649
lradius 24.7927
lwrist 23.7756
lhand 5.24636 51.1246
lfingers 7.12502
lthumb -149.395 -101.399
rfemur -35.7411 0.177623 16.1708
rtibia 34.764
rfoot -9.88857 1.28411
rtoes 0.525059
lfemur -24.6693 4.43527 -2.24536
ltibia 27.4091
lfoot -10.8623 6.70249
ltoes -24.1412
129
root -8.19968 17.6481 0.654742 -14.1266 78.9716 -29.6127
lowerback 4.82538 2.57066 -6.70704
upperback 4.53599 3.29197 2.40842
thorax 1.4959 1.49309 6.14825
lowerneck -14.2424 2.75907 1.64574
upperneck 34.0831 7.08398 -6.18659
head 14.3963 2.79232 -1.55622
rclavicle 1.04362e-014 2.50469e-014
rhumerus -12.0014 1.90324 -102.473
rradius 49.4158
rwrist -66.3559
rhand -43.4673 -4.92886
rfingers 7.12502
rthumb -16.3083 -34.2631
lclavicle 1.04362e-014 2.50469e-014
lhumerus 34.3505 -76.6245 62.402
lradius 24.7085
lwrist 22.446
lhand 5.44293 50.2571
lfingers 7.12502
lthumb -149.208 -102.302
rfemur -35.8397 0.285863 16.6764
rtibia 34.8575
rfoot -9.93603 1.66296
rtoes 0.195482
lfemur -24.1939 4.59117 -1.80754
ltibia 27.2118
lfoot -10.7486 7.1794
ltoes -24.4673
